<svg xmlns="http://www.w3.org/2000/svg" xmlns:xlink="http://www.w3.org/1999/xlink" width="1080" zoomAndPan="magnify" viewBox="0 0 810 1012.49997" height="1350" preserveAspectRatio="xMidYMid meet" version="1.0"><defs><clipPath id="47d70f4f32"><path d="M 81.160156 702 L 208 702 L 208 828.222656 L 81.160156 828.222656 Z M 81.160156 702 " clip-rule="nonzero"/></clipPath></defs><path fill="#828282" d="M 203.582031 781.472656 C 210.546875 781.472656 216.191406 775.824219 216.191406 768.859375 C 216.191406 761.894531 210.546875 756.25 203.582031 756.25 C 175.765625 756.25 153.136719 733.617188 153.136719 705.800781 C 153.136719 698.839844 147.488281 693.191406 140.523438 693.191406 C 133.558594 693.191406 127.910156 698.839844 127.910156 705.800781 C 127.910156 747.527344 161.855469 781.472656 203.582031 781.472656 Z M 203.582031 781.472656 " fill-opacity="1" fill-rule="nonzero"/><g clip-path="url(#47d70f4f32)"><path fill="#828282" d="M 194.664062 828.222656 C 201.628906 828.222656 207.273438 822.574219 207.273438 815.613281 C 207.273438 808.648438 201.628906 803 194.664062 803 C 145.984375 803 106.382812 763.398438 106.382812 714.71875 C 106.382812 707.757812 100.734375 702.109375 93.769531 702.109375 C 86.808594 702.109375 81.160156 707.757812 81.160156 714.71875 C 81.160156 777.304688 132.078125 828.222656 194.664062 828.222656 Z M 194.664062 828.222656 " fill-opacity="1" fill-rule="nonzero"/></g><path fill="#828282" d="M 211.640625 679.90625 L 185.746094 705.800781 C 180.820312 710.726562 180.820312 718.710938 185.746094 723.640625 C 190.671875 728.5625 198.65625 728.5625 203.582031 723.640625 L 229.476562 697.742188 L 298.878906 767.144531 C 303.804688 772.066406 311.789062 772.066406 316.714844 767.144531 C 352.378906 731.480469 361.652344 677.089844 340.167969 631.640625 L 363.949219 607.863281 L 390.699219 634.617188 C 395.625 639.539062 403.609375 639.539062 408.535156 634.617188 L 444.207031 598.945312 C 455.757812 610.5 578.953125 733.691406 595.804688 750.542969 C 600.730469 755.46875 608.714844 755.46875 613.640625 750.542969 L 720.652344 643.53125 C 725.578125 638.609375 725.578125 630.621094 720.652344 625.695312 L 569.050781 474.097656 L 573.511719 469.636719 C 590.761719 452.382812 590.761719 424.464844 573.511719 407.214844 L 569.050781 402.753906 L 573.511719 398.296875 C 590.761719 381.042969 590.761719 353.121094 573.511719 335.875 C 556.257812 318.621094 528.335938 318.625 511.085938 335.875 L 506.625 340.332031 L 502.167969 335.875 C 484.917969 318.621094 456.996094 318.625 439.742188 335.875 L 435.285156 340.332031 L 283.683594 188.730469 C 278.757812 183.808594 270.777344 183.804688 265.847656 188.730469 L 158.835938 295.742188 C 153.910156 300.667969 153.910156 308.652344 158.835938 313.578125 C 175.722656 330.460938 298.875 453.613281 310.4375 465.179688 L 274.769531 500.847656 C 269.84375 505.773438 269.84375 513.757812 274.769531 518.6875 L 301.523438 545.4375 L 275.464844 571.492188 C 232.28125 554.8125 181.976562 564.277344 147.910156 598.34375 C 142.988281 603.269531 142.988281 611.253906 147.910156 616.179688 Z M 497.710938 545.4375 L 533.378906 581.109375 L 497.710938 616.777344 L 462.039062 581.109375 Z M 551.214844 491.933594 L 586.886719 527.601562 L 551.214844 563.273438 L 515.546875 527.601562 Z M 640.394531 581.109375 L 604.722656 616.777344 L 569.050781 581.109375 L 604.722656 545.4375 Z M 515.546875 634.613281 L 551.214844 598.945312 L 586.886719 634.617188 L 551.21875 670.285156 Z M 604.722656 723.792969 L 569.050781 688.121094 L 604.722656 652.449219 L 640.390625 688.121094 Z M 658.226562 670.285156 L 622.558594 634.617188 L 658.226562 598.945312 L 693.898438 634.617188 Z M 528.921875 353.707031 C 536.316406 346.3125 548.285156 346.316406 555.675781 353.707031 C 563.070312 361.105469 563.066406 373.070312 555.675781 380.460938 L 551.214844 384.917969 L 524.464844 358.167969 Z M 381.78125 393.835938 L 346.109375 358.167969 L 381.78125 322.496094 L 417.449219 358.167969 Z M 328.273438 447.34375 L 292.605469 411.671875 L 328.273438 376 L 363.945312 411.671875 Z M 239.097656 358.167969 L 274.769531 322.496094 L 310.4375 358.167969 L 274.769531 393.839844 Z M 363.945312 304.660156 L 328.273438 340.332031 L 292.601562 304.660156 L 328.273438 268.992188 Z M 274.769531 215.484375 L 310.4375 251.15625 L 274.769531 286.824219 L 239.097656 251.15625 Z M 221.261719 268.992188 L 256.929688 304.660156 L 221.261719 340.332031 L 185.589844 304.660156 Z M 319.355469 563.273438 L 346.109375 590.027344 L 326.570312 609.5625 C 319.074219 599.917969 310.183594 591.289062 298.921875 583.710938 Z M 325.554688 695.246094 L 219.808594 589.5 C 281.429688 581.3125 333.753906 633.566406 325.554688 695.246094 Z M 192.222656 597.589844 L 317.46875 722.832031 C 314.691406 728.753906 311.28125 734.449219 307.203125 739.796875 C 291.5625 724.15625 188.507812 621.101562 175.261719 607.855469 C 180.605469 603.777344 186.300781 600.367188 192.222656 597.589844 Z M 192.222656 597.589844 " fill-opacity="1" fill-rule="nonzero"/></svg>